<svg width="20.000000" height="20.000000" viewBox="0 0 20 20" fill="none" xmlns="http://www.w3.org/2000/svg" xmlns:xlink="http://www.w3.org/1999/xlink">
	<desc>
			Created with Pixso.
	</desc>
	<defs/>
	<path id="Vector" d="M18.78 14L15.99 11.21C14.99 10.21 13.3 10.61 12.9 11.91C12.6 12.8 11.6 13.3 10.7 13.1C8.7 12.6 6.01 10.01 5.51 7.91C5.21 7.02 5.81 6.02 6.71 5.72C8.01 5.32 8.41 3.62 7.41 2.63L4.61 -0.17C3.82 -0.87 2.62 -0.87 1.92 -0.17L0.02 1.73C-1.87 3.72 0.22 9.01 4.91 13.7C9.6 18.39 14.89 20.59 16.89 18.59L18.78 16.7C19.48 15.9 19.48 14.7 18.78 14Z" fill="#FFFFFF" fill-opacity="1.000000" fill-rule="nonzero"/>
</svg>
