<svg width="11.000000" height="10.000000" viewBox="0 0 11 10" fill="none" xmlns="http://www.w3.org/2000/svg" xmlns:xlink="http://www.w3.org/1999/xlink">
	<desc>
			Created with Pixso.
	</desc>
	<defs/>
	<path id="Vector" d="M10.23 7.7C10.02 8.32 9.16 8.83 8.47 8.97C8 9.07 7.38 9.15 5.32 8.3C2.67 7.2 0.97 4.51 0.83 4.34C0.71 4.16 -0.23 2.92 -0.23 1.62C-0.23 0.33 0.42 -0.3 0.69 -0.57C0.9 -0.79 1.26 -0.89 1.61 -0.89C1.72 -0.89 1.82 -0.88 1.91 -0.88C2.17 -0.87 2.31 -0.85 2.48 -0.43C2.7 0.09 3.23 1.38 3.29 1.51C3.35 1.65 3.42 1.83 3.33 2C3.24 2.18 3.17 2.26 3.04 2.41C2.9 2.57 2.78 2.68 2.64 2.85C2.52 2.99 2.39 3.14 2.54 3.41C2.69 3.67 3.22 4.53 4 5.22C5 6.12 5.82 6.4 6.11 6.52C6.33 6.61 6.58 6.59 6.74 6.42C6.94 6.21 7.19 5.85 7.45 5.49C7.63 5.24 7.85 5.21 8.09 5.3C8.34 5.38 9.62 6.02 9.89 6.15C10.15 6.28 10.32 6.34 10.39 6.46C10.45 6.57 10.45 7.09 10.23 7.7Z" fill="#FAFAFA" fill-opacity="1.000000" fill-rule="nonzero"/>
</svg>
