<svg width="20.725128" height="19.294434" viewBox="0 0 20.7251 19.2944" fill="none" xmlns="http://www.w3.org/2000/svg" xmlns:xlink="http://www.w3.org/1999/xlink">
	<desc>
			Created with Pixso.
	</desc>
	<defs/>
	<path id="Vector" d="M20.35 16.7C19.93 17.9 18.25 18.88 16.92 19.17C16 19.37 14.81 19.52 10.79 17.86C5.64 15.73 2.33 10.5 2.07 10.16C1.83 9.82 0 7.39 0 4.88C0 2.37 1.27 1.15 1.78 0.62C2.21 0.19 2.9 0 3.57 0C3.79 0 3.98 0.01 4.16 0.01C4.67 0.04 4.93 0.07 5.27 0.88C5.69 1.9 6.72 4.41 6.84 4.67C6.97 4.92 7.09 5.27 6.92 5.61C6.75 5.96 6.61 6.12 6.35 6.42C6.09 6.71 5.85 6.94 5.59 7.26C5.35 7.54 5.09 7.83 5.39 8.35C5.68 8.85 6.71 10.53 8.22 11.88C10.18 13.62 11.76 14.17 12.33 14.41C12.75 14.58 13.25 14.54 13.56 14.21C13.95 13.79 14.44 13.09 14.93 12.4C15.28 11.91 15.72 11.85 16.18 12.02C16.66 12.19 19.16 13.42 19.67 13.68C20.19 13.94 20.52 14.06 20.65 14.27C20.77 14.49 20.77 15.51 20.35 16.7Z" fill="#2A2367" fill-opacity="1.000000" fill-rule="nonzero"/>
</svg>
