<svg width="21.000000" height="18.000000" viewBox="0 0 21 18" fill="none" xmlns="http://www.w3.org/2000/svg" xmlns:xlink="http://www.w3.org/1999/xlink">
	<desc>
			Created with Pixso.
	</desc>
	<defs/>
	<path id="Vector" d="M19.61 14.17C20.47 14.92 20.47 16.14 19.61 16.89C19.17 17.27 18.61 17.46 18.04 17.46C17.47 17.46 16.91 17.27 16.48 16.89L9.82 11.09L3.17 16.89C2.74 17.27 2.17 17.46 1.6 17.46C1.03 17.46 0.47 17.27 0.04 16.89C-0.83 16.14 -0.83 14.92 0.04 14.17L6.69 8.37L0.04 2.57C-0.83 1.81 -0.83 0.59 0.04 -0.16C0.9 -0.92 2.3 -0.92 3.17 -0.16L9.82 5.64L16.48 -0.16C17.34 -0.92 18.74 -0.92 19.61 -0.16C20.47 0.59 20.47 1.81 19.61 2.57L12.95 8.37L19.61 14.17Z" fill="#2A2367" fill-opacity="1.000000" fill-rule="nonzero"/>
</svg>
